<svg width="38" height="38" viewBox="0 0 38 38" fill="none" xmlns="http://www.w3.org/2000/svg">
<g filter="url(#filter0_d_1_97)">
<path d="M19 33C10.735 33 4 26.265 4 18C4 9.72 10.735 3 19 3L19.4196 3.00576C27.5059 3.22824 34 9.86034 34 18C34 26.265 27.28 33 19 33ZM21.16 24.33C21.46 24.33 21.745 24.225 21.97 24C22.405 23.55 22.405 22.845 21.955 22.41L17.53 18L21.955 13.59C22.405 13.155 22.405 12.435 21.97 12C21.52 11.55 20.815 11.55 20.38 12L15.145 17.205C14.935 17.415 14.815 17.7 14.815 18C14.815 18.3 14.935 18.585 15.145 18.795L20.38 24C20.59 24.225 20.875 24.33 21.16 24.33Z" fill="white"/>
</g>
<defs>
<filter id="filter0_d_1_97" x="0" y="0" width="38" height="38" filterUnits="userSpaceOnUse" color-interpolation-filters="sRGB">
<feFlood flood-opacity="0" result="BackgroundImageFix"/>
<feColorMatrix in="SourceAlpha" type="matrix" values="0 0 0 0 0 0 0 0 0 0 0 0 0 0 0 0 0 0 127 0" result="hardAlpha"/>
<feOffset dy="1"/>
<feGaussianBlur stdDeviation="2"/>
<feComposite in2="hardAlpha" operator="out"/>
<feColorMatrix type="matrix" values="0 0 0 0 0 0 0 0 0 0 0 0 0 0 0 0 0 0 0.25 0"/>
<feBlend mode="normal" in2="BackgroundImageFix" result="effect1_dropShadow_1_97"/>
<feBlend mode="normal" in="SourceGraphic" in2="effect1_dropShadow_1_97" result="shape"/>
</filter>
</defs>
</svg>
